# Blender v2.79 (sub 0) OBJ File: 'Tank.blend'
# www.blender.org
mtllib Tank.mtl
o Tank_Gun_Cube.001
v -0.517928 3.900802 -0.330604
v -9.828760 3.900800 -0.330603
v -0.517928 3.694848 -0.200346
v -9.828760 3.694846 -0.200344
v -0.517928 3.694848 0.060171
v -9.828760 3.694846 0.060173
v -0.517928 3.900802 0.190430
v -9.828760 3.900800 0.190431
v -0.517928 4.106755 0.060171
v -9.828760 4.106753 0.060173
v -0.517928 4.106755 -0.200346
v -9.828760 4.106753 -0.200344
v -9.828760 3.739152 -0.172322
v -9.828760 3.900800 -0.274559
v -9.828760 3.739152 0.032151
v -9.828760 3.900800 0.134388
v -9.828760 4.062448 0.032151
v -9.828760 4.062448 -0.172322
v -3.742103 3.739154 -0.172323
v -3.742103 3.900802 -0.274559
v -3.742103 3.739154 0.032151
v -3.742103 3.900802 0.134387
v -3.742103 4.062449 0.032151
v -3.742103 4.062449 -0.172323
v -8.284443 3.900800 -0.330603
v -8.284443 3.694846 -0.200344
v -8.284443 3.694846 0.060173
v -8.284443 3.900800 0.190431
v -8.284443 4.106753 0.060173
v -8.284443 4.106753 -0.200344
v -7.045178 3.694846 -0.200344
v -7.045178 3.694846 0.060173
v -7.045178 3.900800 0.190431
v -7.045178 4.106753 0.060173
v -7.045178 4.106753 -0.200344
v -7.045178 3.900800 -0.330603
v -7.112675 3.900800 -0.410985
v -8.216946 3.900800 -0.410985
v -8.216946 4.170300 -0.240535
v -8.216946 4.170300 0.100364
v -8.216946 3.900800 0.270814
v -8.216946 3.631299 0.100364
v -8.216946 3.631299 -0.240535
v -7.112675 3.631299 -0.240536
v -7.112675 3.631299 0.100364
v -7.112675 3.900800 0.270814
v -7.112675 4.170300 0.100364
v -7.112675 4.170300 -0.240536
v -8.932297 3.900800 -0.330603
v -8.932297 3.694846 -0.200344
v -8.932297 3.694846 0.060173
v -8.932297 3.900800 0.190431
v -8.932297 4.106753 0.060173
v -8.932297 4.106753 -0.200344
v -9.793411 3.641063 -0.234360
v -9.793411 3.900800 -0.398634
v -8.967646 3.900800 -0.398635
v -9.793411 3.641063 0.094189
v -9.793411 3.900800 0.258463
v -9.793411 4.160536 0.094189
v -9.793411 4.160536 -0.234360
v -8.967646 3.641063 -0.234360
v -8.967646 3.641063 0.094189
v -8.967646 3.900800 0.258463
v -8.967646 4.160536 0.094189
v -8.967646 4.160536 -0.234360
vn -0.8519 -0.2799 0.4426
vn -0.8519 -0.2800 -0.4426
vn -0.8519 0.2800 0.4426
vn 0.8519 0.2799 -0.4426
vn -1.0000 0.0000 0.0000
vn -0.8357 0.5492 0.0000
vn 0.8519 -0.2800 0.4426
vn 1.0000 0.0000 0.0000
vn 0.0000 -1.0000 0.0000
vn -0.0000 0.5345 -0.8452
vn -0.0000 0.5345 0.8452
vn 0.0000 -0.5345 0.8452
vn 0.0000 -0.5345 -0.8452
vn -0.0000 1.0000 0.0000
vn 0.7094 0.3767 0.5957
vn -0.6855 0.7281 0.0000
vn -0.6855 -0.7281 0.0000
vn 0.7094 -0.3767 0.5957
vn -0.7094 0.3767 -0.5957
vn 0.7094 0.3767 -0.5957
vn 0.0000 0.5345 0.8451
vn -0.0000 0.5345 -0.8451
vn -0.7094 -0.3767 -0.5957
vn 0.7094 -0.3767 -0.5957
vn -0.7094 0.3767 0.5957
vn 0.6855 0.7281 0.0000
vn 0.6855 -0.7281 0.0000
vn -0.7094 -0.3767 0.5957
vn 0.8357 -0.5492 0.0000
vn -0.8357 -0.5493 0.0000
vn 0.8357 0.5492 0.0000
vn 0.8519 -0.2799 -0.4426
vn 0.8519 0.2800 0.4426
vn -0.8519 0.2799 -0.4426
usemtl Main_Details
s off
f 6//1 58//1 59//1 8//1
f 2//2 56//2 55//2 4//2
f 8//3 59//3 60//3 10//3
f 49//4 57//4 66//4 54//4
f 10//5 17//5 16//5 8//5
f 10//6 60//6 61//6 12//6
f 52//7 64//7 63//7 51//7
f 1//8 11//8 9//8 7//8 5//8 3//8
f 18//9 24//9 23//9 17//9
f 6//5 15//5 13//5 4//5
f 12//5 18//5 17//5 10//5
f 4//5 13//5 14//5 2//5
f 8//5 16//5 15//5 6//5
f 2//5 14//5 18//5 12//5
f 19//5 21//5 22//5 23//5 24//5 20//5
f 16//10 22//10 21//10 15//10
f 13//11 19//11 20//11 14//11
f 14//12 20//12 24//12 18//12
f 17//13 23//13 22//13 16//13
f 15//14 21//14 19//14 13//14
f 34//15 47//15 46//15 33//15
f 29//16 40//16 39//16 30//16
f 26//17 43//17 42//17 27//17
f 33//18 46//18 45//18 32//18
f 30//19 39//19 38//19 25//19
f 36//20 37//20 48//20 35//20
f 1//13 3//13 31//13 36//13
f 3//9 5//9 32//9 31//9
f 5//12 7//12 33//12 32//12
f 7//21 9//21 34//21 33//21
f 9//14 11//14 35//14 34//14
f 11//22 1//22 36//22 35//22
f 31//8 36//8 35//8 34//8 33//8 32//8
f 48//10 37//10 38//10 39//10
f 47//14 48//14 39//14 40//14
f 46//11 47//11 40//11 41//11
f 45//12 46//12 41//12 42//12
f 44//9 45//9 42//9 43//9
f 37//13 44//13 43//13 38//13
f 25//23 38//23 43//23 26//23
f 31//24 44//24 37//24 36//24
f 28//25 41//25 40//25 29//25
f 35//26 48//26 47//26 34//26
f 32//27 45//27 44//27 31//27
f 27//28 42//28 41//28 28//28
f 30//22 25//22 49//22 54//22
f 29//14 30//14 54//14 53//14
f 28//11 29//11 53//11 52//11
f 27//12 28//12 52//12 51//12
f 26//9 27//9 51//9 50//9
f 25//13 26//13 50//13 49//13
f 57//13 62//13 55//13 56//13
f 62//9 63//9 58//9 55//9
f 63//12 64//12 59//12 58//12
f 64//11 65//11 60//11 59//11
f 65//14 66//14 61//14 60//14
f 66//10 57//10 56//10 61//10
f 51//29 63//29 62//29 50//29
f 4//30 55//30 58//30 6//30
f 54//31 66//31 65//31 53//31
f 50//32 62//32 57//32 49//32
f 53//33 65//33 64//33 52//33
f 12//34 61//34 56//34 2//34
